<?xml version="1.0" encoding="UTF-8" standalone="no"?>
<!DOCTYPE svg PUBLIC "-//W3C//DTD SVG 1.1//EN" "http://www.w3.org/Graphics/SVG/1.1/DTD/svg11.dtd">
<!-- Created with Vectornator (http://vectornator.io/) -->
<svg height="100%" stroke-miterlimit="10" style="fill-rule:nonzero;clip-rule:evenodd;stroke-linecap:round;stroke-linejoin:round;" version="1.1" viewBox="0 0 707.27 972.76" width="100%" xml:space="preserve" xmlns="http://www.w3.org/2000/svg" xmlns:xlink="http://www.w3.org/1999/xlink">
<defs/>
<g id="Layer-1">
<path d="M151.558 817.67L555.712 817.67C587.39 817.67 614.563 811.369 637.232 798.769C659.901 786.169 677.241 768.357 689.253 745.335C701.264 722.313 707.27 695.14 707.27 663.816L707.27 408.04C707.27 374.36 706.387 344.302 704.62 317.865C702.854 291.428 700.41 267.522 697.29 246.149C694.169 224.775 690.489 204.668 686.25 185.826C679.066 149.791 667.909 119.497 652.776 94.9443C637.644 70.3913 618.155 51.0491 594.308 36.9179C570.462 22.7866 541.875 13.3069 508.549 8.47875C491.709 6.00578 469.717 3.97441 442.574 2.38465C415.43 0.794883 385.784 0 353.635 0C319.72 0 289.632 0.794883 263.372 2.38465C237.111 3.97441 215.561 6.00578 198.721 8.47875C165.277 13.3069 136.632 22.7866 112.785 36.9179C88.9387 51.0491 69.4787 70.3913 54.4054 94.9443C39.332 119.497 28.2037 149.791 21.0203 185.826C16.7809 204.668 13.1009 224.687 9.98021 245.884C6.85955 267.081 4.41602 290.721 2.64961 316.805C0.883204 342.889 0 372.771 0 406.45L0 663.816C0 695.14 6.03523 722.313 18.1057 745.335C30.1761 768.357 47.487 786.169 70.0381 798.769C92.5893 811.369 119.763 817.67 151.558 817.67ZM163.04 740.654C143.962 740.654 127.947 737.121 114.993 730.056C102.04 722.99 92.3243 712.981 85.8475 700.027C79.3706 687.073 76.1322 671.941 76.1322 654.63L76.1322 406.45C76.1322 381.603 76.6327 359.169 77.6337 339.15C78.6346 319.131 80.0477 300.848 81.873 284.303C83.6983 267.758 85.8475 252.213 88.3204 237.67C90.7934 223.127 93.443 208.848 96.2693 194.835C100.98 171.165 108.163 151.587 117.819 136.102C127.476 120.616 139.988 108.575 155.356 99.9786C170.723 91.3821 189.418 85.7885 211.439 83.1977C226.395 81.3136 245.884 79.8121 269.907 78.6934C293.93 77.5747 321.84 77.0153 353.635 77.0153C383.546 77.0153 410.955 77.5747 435.861 78.6934C460.768 79.8121 480.699 81.3136 495.654 83.1977C517.675 85.7885 536.399 91.3821 551.826 99.9786C567.253 108.575 579.794 120.616 589.451 136.102C599.107 151.587 606.29 171.165 611.001 194.835C613.827 208.848 616.477 223.185 618.95 237.847C621.423 252.508 623.572 268.258 625.397 285.098C627.222 301.938 628.635 320.426 629.636 340.563C630.637 360.7 631.138 383.192 631.138 408.04L631.138 654.63C631.138 671.941 627.899 687.073 621.423 700.027C614.946 712.981 605.23 722.99 592.277 730.056C579.323 737.121 563.249 740.654 544.054 740.654L163.04 740.654ZM353.635 549.882C397.795 549.647 435.92 548.764 468.01 547.233C500.1 545.702 525.389 543.877 543.877 541.757C555.889 540.226 564.927 535.633 570.992 527.979C577.056 520.324 580.089 510.727 580.089 499.186L580.089 409.453C580.089 387.196 579.411 366.088 578.057 346.127C576.703 326.167 575.113 308.709 573.288 293.753C571.463 278.798 569.843 267.728 568.43 260.545C566.782 251.006 562.807 243.028 556.507 236.61C550.207 230.192 542.287 226.453 532.749 225.393C520.266 223.745 505.958 222.42 489.825 221.419C473.692 220.418 454.556 219.564 432.417 218.858C410.278 218.151 384.017 217.739 353.635 217.621C322.899 217.739 296.462 218.151 274.323 218.858C252.184 219.564 233.078 220.418 217.003 221.419C200.929 222.42 186.592 223.745 173.991 225.393C164.57 226.453 156.739 230.192 150.498 236.61C144.257 243.028 140.312 251.006 138.663 260.545C137.25 267.728 135.631 278.798 133.805 293.753C131.98 308.709 130.39 326.167 129.036 346.127C127.682 366.088 127.005 387.196 127.005 409.453L127.005 499.186C127.005 510.727 130.037 520.324 136.102 527.979C142.166 535.633 151.205 540.226 163.216 541.757C181.587 543.877 206.788 545.702 238.818 547.233C270.849 548.764 309.122 549.647 353.635 549.882ZM184.766 692.961C198.898 692.961 210.674 688.28 220.095 678.918C229.515 669.556 234.226 657.751 234.226 643.502C234.226 629.488 229.515 617.83 220.095 608.527C210.674 599.224 198.898 594.572 184.766 594.572C170.871 594.572 159.271 599.224 149.968 608.527C140.665 617.83 136.013 629.488 136.013 643.502C136.013 657.751 140.636 669.556 149.88 678.918C159.124 688.28 170.753 692.961 184.766 692.961ZM522.15 693.138C535.928 693.138 547.557 688.398 557.037 678.918C566.517 669.439 571.257 657.633 571.257 643.502C571.257 629.606 566.576 617.948 557.214 608.527C547.852 599.106 536.164 594.396 522.15 594.396C508.137 594.396 496.361 599.106 486.822 608.527C477.284 617.948 472.514 629.606 472.514 643.502C472.514 657.633 477.284 669.439 486.822 678.918C496.361 688.398 508.137 693.138 522.15 693.138ZM262.842 178.054L444.252 178.054C452.731 178.054 459.737 175.316 465.272 169.84C470.807 164.364 473.574 157.328 473.574 148.731C473.574 140.253 470.807 133.275 465.272 127.8C459.737 122.324 452.731 119.586 444.252 119.586L262.842 119.586C254.363 119.586 247.415 122.324 241.998 127.8C236.581 133.275 233.872 140.253 233.872 148.731C233.872 157.446 236.581 164.511 241.998 169.928C247.415 175.345 254.363 178.054 262.842 178.054ZM78.0753 972.76L104.571 972.76C117.172 972.76 126.946 967.225 133.894 956.156L250.477 768.563L156.68 768.563L56.3484 929.66C52.4623 935.783 50.7842 942.172 51.3142 948.825C51.8441 955.479 54.3759 961.131 58.9097 965.783C63.4435 970.434 69.832 972.76 78.0753 972.76ZM119.409 925.42L581.325 925.42L581.325 855.294L119.409 855.294L119.409 925.42ZM596.163 972.76L618.066 972.76C626.31 972.76 632.993 970.375 638.115 965.606C643.238 960.837 646.27 954.919 647.212 947.854C648.154 940.788 646.388 933.664 641.913 926.48L543.877 768.563L450.081 768.563L566.664 956.156C573.73 967.225 583.563 972.76 596.163 972.76Z" fill="#ffffff" fill-rule="nonzero" opacity="1" stroke="none"/>
</g>
</svg>
